<svg width="44" height="39" fill="none" xmlns="http://www.w3.org/2000/svg"><path d="M9.8 38.08c-2.8 0-5-1.07-6.58-3.22-1.5-2.15-2.24-5.27-2.24-9.38 0-5.6 1.26-10.45 3.78-14.56 2.52-4.1 6.2-7.56 11.06-10.36l3.36 5.46c-3.55 2.33-6.2 4.85-7.98 7.56-1.77 2.61-2.66 5.88-2.66 9.8.28-.1.7-.14 1.26-.14 1.87 0 3.55.6 5.04 1.82 1.59 1.21 2.38 2.99 2.38 5.32 0 2.43-.7 4.34-2.1 5.74a7.49 7.49 0 01-5.32 1.96zm24.64 0c-2.8 0-5-1.07-6.58-3.22-1.5-2.15-2.24-5.27-2.24-9.38 0-5.6 1.26-10.45 3.78-14.56 2.52-4.1 6.2-7.56 11.06-10.36l3.36 5.46c-3.55 2.33-6.2 4.85-7.98 7.56-1.77 2.61-2.66 5.88-2.66 9.8.28-.1.7-.14 1.26-.14 1.87 0 3.55.6 5.04 1.82 1.59 1.21 2.38 2.99 2.38 5.32 0 2.43-.7 4.34-2.1 5.74a7.49 7.49 0 01-5.32 1.96z" fill="#5974FF"/></svg>
